<mxfile host="app.diagrams.net" modified="2024-02-10T18:36:37.689Z" agent="Mozilla/5.0 (Windows NT 10.0; Win64; x64) AppleWebKit/537.36 (KHTML, like Gecko) Chrome/121.0.0.0 Safari/537.36" version="23.1.2" etag="WObpVU7Hwmw6gmRKoAQ0" type="github">
  <diagram name="Page-1" id="25gj3pgJ0d__4b_vWqsy">
    <mxGraphModel>
      <root>
        <mxCell id="0" />
        <mxCell id="1" parent="0" />
      </root>
    </mxGraphModel>
  </diagram>
</mxfile>
